@startuml Space_Invaders
class Game{
- startGame
- endGame
}
class Player{
- moveTank
- score
}
class AI{
- attackPlayer
- move
* left
* right
}
class Wall{
- protect
}
class Tank {
- shoot
- attack
- move
*left
*right
}
class Enemies{
-attackPlayer
-move
*left
*right
}
class Missile{
-destroyEnemie
-destroyPlayer
}
class Collidable 
class Button{
-shoot
}
class LeverMove{
-move
*left
*right
}
class SpaceMap{
    -charactersMoving
}

Player o-- Tank
Wall --|> Collidable
Missile --|> Collidable
AI o-- Enemies
Enemies o-- Missile
Button --|> Missile
Tank--  Missile
Player o-- Button
Enemies --|> Collidable
Tank-|> Collidable
Enemies --|> Collidable
Tank-- Missile
Enemies *--  Missile
Enemies --|> AI
Player o-- PalancaMovimiento
Game *-- SpaceMap
@enduml